<?xml version="1.0" standalone="no"?>
<!DOCTYPE svg PUBLIC "-//W3C//DTD SVG 20010904//EN"
 "http://www.w3.org/TR/2001/REC-SVG-20010904/DTD/svg10.dtd">
<svg version="1.0" xmlns="http://www.w3.org/2000/svg"
 width="300.000000pt" height="345.000000pt" viewBox="0 0 300.000000 345.000000"
 preserveAspectRatio="xMidYMid meet">
<metadata>
Created by potrace 1.10, written by Peter Selinger 2001-2011
</metadata>
<g transform="translate(0.000000,345.000000) scale(0.050000,-0.050000)"
fill="#529c02" stroke="none">
<path d="M4430 6869 c-11 -3 -978 -10 -2150 -15 -2123 -10 -2221 -13 -2246
-78 -18 -47 11 -6665 29 -6688 36 -46 264 -52 1867 -46 902 3 1853 4 2114 2
l473 -4 14 45 c33 104 115 176 184 163 61 -12 65 -9 65 45 0 31 13 111 29 177
19 80 21 124 7 132 -13 9 -12 18 4 28 16 10 20 47 12 117 -7 57 -4 115 6 131
11 17 8 51 -8 90 -64 156 72 269 192 160 27 -24 44 -26 75 -10 28 15 57 16 93
2 59 -22 140 -17 335 22 l135 27 0 78 c0 95 88 193 172 193 39 0 49 8 40 32
-7 17 -12 359 -12 760 l0 728 -57 0 c-72 0 -163 82 -163 147 0 26 -15 60 -32
75 -53 44 -128 -66 -128 -188 0 -159 -153 -286 -235 -195 -78 85 -85 104 -85
220 0 114 -3 121 -48 121 l-48 0 10 -395 c5 -217 10 -415 10 -440 0 -25 8 -45
18 -45 10 0 18 -10 18 -21 0 -12 -10 -15 -21 -8 -15 9 -20 -59 -18 -214 l4
-227 -142 -150 c-78 -82 -243 -256 -367 -385 l-226 -236 -200 -9 c-110 -4
-495 -11 -857 -14 -361 -3 -659 -10 -662 -15 -20 -39 34 -141 75 -141 36 1 38
4 14 20 -39 25 -44 24 190 28 110 2 212 11 226 20 55 33 137 31 93 -2 -38 -29
-38 -30 4 -18 31 10 45 3 53 -27 5 -23 26 -41 45 -41 20 0 30 6 23 13 -35 35
31 91 93 78 35 -7 80 -12 100 -13 21 0 42 -17 47 -38 6 -23 21 -33 40 -26 18
7 39 -2 49 -21 30 -53 59 -40 37 17 -20 53 -26 51 110 56 27 1 61 -14 76 -34
33 -46 154 -19 184 41 17 34 30 37 89 22 38 -10 94 -15 124 -10 37 5 60 -3 69
-24 10 -23 18 -14 31 32 19 69 74 103 102 63 14 -21 20 -21 28 -1 6 14 23 25
39 25 35 0 37 33 3 47 -15 6 -7 16 20 24 24 7 39 23 32 34 -8 12 -4 15 9 7 16
-9 11 -34 -16 -83 -22 -38 -30 -70 -20 -71 11 -2 29 -5 40 -8 11 -3 29 -6 40
-7 39 -5 19 -59 -43 -120 -53 -52 -59 -66 -38 -92 20 -24 21 -31 1 -31 -20 0
-19 -7 1 -31 14 -17 38 -26 53 -20 19 7 23 2 12 -14 -8 -14 -16 -29 -17 -35
-8 -36 -41 -93 -66 -112 -25 -19 -24 -23 4 -34 19 -7 27 -25 21 -43 -7 -17
-20 -26 -29 -21 -9 6 -23 0 -31 -13 -10 -16 -20 -10 -31 20 -10 28 -33 43 -66
43 -28 0 -51 11 -51 24 0 18 -6 18 -22 2 -13 -13 -36 -18 -51 -12 -24 9 -24 2
-4 -43 20 -44 27 -48 42 -22 25 45 131 41 128 -4 -2 -19 -14 -42 -28 -51 -40
-26 -8 -57 34 -34 31 16 35 13 27 -21 -7 -25 -23 -37 -43 -31 -18 5 -54 15
-80 22 -40 12 -45 8 -35 -25 11 -34 3 -38 -86 -37 -54 1 -93 -6 -88 -15 6 -9
-49 -12 -122 -6 -98 7 -129 4 -119 -13 9 -18 6 -18 -11 -2 -49 44 -3 90 81 79
74 -8 78 -6 66 35 -17 55 -49 92 -49 56 0 -21 -11 -20 -47 4 -49 33 -93 14
-93 -38 0 -14 -11 -29 -25 -34 -20 -7 -20 -14 0 -36 32 -34 32 -65 0 -45 -13
8 -54 13 -91 9 -62 -5 -65 -3 -41 35 14 22 34 35 46 29 12 -7 11 -1 -2 13 -17
19 -33 19 -65 2 -52 -28 -104 -21 -136 19 -22 26 -25 26 -25 -4 -1 -19 14 -42
32 -53 57 -31 19 -87 -43 -63 -28 11 -62 17 -76 15 -13 -3 -25 18 -27 45 -2
28 -4 58 -5 67 -1 10 -15 7 -31 -7 -24 -19 -36 -18 -60 7 -43 42 -40 128 4
139 29 8 28 10 -6 12 -27 1 -47 -16 -61 -53 -22 -60 -16 -112 12 -95 10 6 23
2 30 -10 7 -11 -4 -20 -23 -20 -31 0 -30 -4 7 -30 24 -17 54 -28 67 -25 13 3
28 -5 32 -17 6 -15 -32 -24 -112 -25 -85 -2 -121 4 -121 22 -1 18 -4 19 -15 2
-17 -26 -473 -46 -497 -21 -8 7 -26 4 -41 -9 -44 -36 -33 23 12 62 47 41 25
85 -47 93 -45 5 -49 0 -32 -32 26 -49 25 -66 -2 -49 -15 10 -15 1 1 -29 22
-41 19 -42 -108 -42 -72 0 -131 8 -131 19 0 10 25 15 55 12 78 -9 92 6 56 61
-18 26 -25 48 -16 48 9 0 18 23 21 51 2 30 -5 46 -16 39 -11 -7 -20 -28 -20
-46 0 -41 -72 -91 -103 -72 -15 9 -17 -13 -7 -69 9 -55 6 -83 -8 -83 -12 0
-22 9 -22 21 0 11 -16 18 -35 15 -34 -6 -38 3 -43 101 -1 37 -11 45 -41 37
-22 -5 -42 -2 -45 7 -15 44 -59 -19 -45 -64 14 -45 16 -45 31 -7 13 35 15 34
17 -13 1 -66 -20 -74 -180 -67 -71 3 -167 -1 -213 -9 -90 -16 -126 2 -126 63
0 45 36 46 84 3 40 -37 70 -25 43 17 -9 14 -17 44 -17 66 0 43 -10 50 -66 50
-46 0 -90 -111 -63 -161 26 -49 25 -53 -21 -65 -22 -6 -40 -3 -40 6 0 8 -30
12 -67 7 -86 -12 -134 35 -85 84 21 21 32 24 32 7 0 -13 18 -3 40 22 52 60 43
66 -52 33 -57 -20 -78 -38 -78 -68 0 -23 -7 -48 -15 -57 -8 -8 -15 -4 -15 10
0 29 -40 70 -77 77 -16 4 -20 -4 -11 -20 12 -19 8 -19 -17 1 -21 18 -56 22
-107 12 -68 -12 -71 -16 -38 -40 20 -15 45 -21 56 -14 18 11 117 15 169 7 8
-1 -3 -12 -24 -25 -31 -18 -388 -28 -606 -17 -14 0 -25 18 -25 40 0 26 -13 38
-38 36 -25 -2 -36 -15 -31 -38 3 -19 -7 -45 -22 -58 -31 -25 -29 -30 -39 131
-2 33 5 76 15 96 12 25 9 47 -9 69 -20 25 -21 33 -1 40 35 12 31 45 -5 45 -16
0 -30 9 -30 20 0 11 9 20 19 20 11 0 15 12 10 26 -20 52 -23 185 -5 220 12 23
10 61 -4 104 -17 52 -16 86 5 149 34 100 74 75 76 -48 1 -62 5 -72 18 -41 22
55 23 207 1 220 -10 6 -14 24 -8 39 6 15 0 34 -13 42 -18 11 -22 -3 -15 -48 7
-50 2 -63 -25 -63 -37 0 -47 221 -12 275 52 83 -28 238 -98 190 -30 -20 -31
-165 -2 -165 26 0 34 -486 8 -512 -8 -8 -16 25 -17 74 l-2 88 -19 -80 c-15
-64 -12 -84 12 -102 17 -12 31 -37 31 -55 0 -22 11 -28 35 -19 28 11 31 8 13
-15 -22 -27 -48 -134 -49 -199 -4 -163 7 -313 24 -345 13 -25 13 -35 1 -28
-11 7 -25 -1 -32 -19 -21 -55 -14 -74 18 -48 25 20 30 19 30 -8 0 -19 -16 -32
-40 -32 -28 0 -40 -13 -40 -43 0 -111 -37 6 -41 130 -1 22 -12 32 -28 26 -18
-7 -23 2 -16 28 5 21 18 34 27 28 10 -6 18 25 18 69 0 77 -38 141 -42 68 -1
-28 -4 -29 -13 -6 -6 17 -19 35 -28 41 -9 6 2 32 25 56 57 62 37 106 -41 90
-39 -8 -61 -4 -61 10 0 13 11 21 25 18 13 -3 27 15 31 40 4 25 15 40 25 34 11
-6 19 -2 19 10 0 11 -18 21 -40 21 -39 0 -56 57 -26 87 28 29 26 93 -4 93 -17
0 -31 16 -31 35 -1 19 -6 78 -11 130 -7 71 -2 95 18 95 44 0 56 -24 29 -57
-21 -26 -19 -28 12 -17 20 8 40 14 45 14 4 0 8 14 8 31 0 18 14 45 30 62 17
17 25 39 18 51 -9 13 -18 13 -27 -2 -10 -16 -29 -10 -61 18 -25 22 -53 40 -62
40 -19 0 -2 57 29 97 21 27 65 -41 55 -85 -2 -10 11 -6 29 9 29 24 29 29 2 50
-36 26 -78 125 -63 149 5 9 -2 21 -17 26 -40 15 -25 151 20 185 36 27 36 28 0
28 -31 1 -34 6 -13 31 13 16 32 25 40 20 9 -5 8 19 -1 55 -35 137 -43 152 -73
141 -26 -10 -26 -6 -3 31 26 42 59 59 55 28 -7 -41 5 -65 32 -65 19 0 30 19
30 50 0 31 -11 50 -30 50 -16 0 -30 14 -30 30 0 17 -9 30 -20 30 -38 0 -20
104 25 141 42 35 31 51 -30 41 -8 -1 -12 68 -8 153 3 85 -1 170 -10 188 -12
24 -5 35 24 43 26 7 35 21 27 42 -7 18 0 47 14 65 48 58 36 167 -18 167 -26 0
-41 9 -34 20 7 11 -2 20 -20 20 -39 0 -31 155 10 180 14 8 19 26 11 38 -7 12
-4 22 8 22 11 0 21 10 21 21 0 12 -10 15 -23 7 -17 -10 -20 4 -10 50 13 67 55
122 92 122 33 0 25 29 -19 60 -22 16 -40 51 -40 78 0 46 -2 47 -27 13 -21 -29
-29 -31 -36 -9 -14 40 10 146 32 147 23 1 15 98 -9 107 -9 3 -6 37 6 75 14 48
26 62 37 45 11 -18 16 -12 17 18 0 24 -14 57 -31 75 -26 26 -27 31 -3 31 21 0
26 19 21 70 -6 50 3 80 34 111 41 41 39 119 -3 119 -11 0 -18 20 -16 45 9 101
0 129 -30 90 -26 -34 -28 -34 -38 5 -7 26 -1 40 18 40 15 0 28 16 28 36 0 20
9 45 19 55 13 13 13 43 2 79 -10 33 -18 49 -19 35 -3 -36 -42 -31 -42 5 0 17
-9 30 -19 30 -39 0 2 51 77 97 71 44 66 146 -5 107 -9 -5 -7 10 5 32 12 23 21
58 21 78 -1 29 -5 27 -20 -9 -21 -52 -44 -57 -79 -15 -19 22 -19 30 -1 30 13
0 18 9 10 21 -8 14 -23 13 -46 -4 -18 -14 -14 -4 10 21 36 40 39 54 20 107
-18 47 -17 63 2 70 14 4 25 18 25 29 0 11 -12 16 -26 10 -15 -5 -25 6 -25 28
0 21 9 39 20 39 12 1 3 10 -19 19 -22 9 -28 18 -14 19 19 1 20 11 4 41 -16 29
-15 40 1 40 13 0 18 14 12 31 -8 19 5 38 36 52 61 28 75 63 52 125 -10 26 -13
53 -6 60 6 7 -3 12 -22 12 -51 0 -39 38 17 52 31 8 50 26 50 50 0 21 11 38 25
39 14 0 9 13 -13 29 -30 23 -33 35 -14 57 18 22 16 31 -9 41 -22 8 -28 25 -18
54 8 27 6 38 -7 31 -11 -7 -25 2 -32 19 -9 24 -4 29 22 19 31 -11 30 -9 -2 27
-20 22 -30 48 -24 59 7 11 4 26 -6 32 -28 17 -18 94 11 83 13 -5 29 4 35 20 7
17 3 25 -8 18 -11 -7 -20 11 -20 41 0 36 13 56 40 63 22 6 35 18 29 27 -6 10
14 5 43 -10 29 -15 65 -23 80 -17 39 15 39 -200 0 -232 -58 -48 -38 -173 22
-136 19 12 18 -182 -2 -366 -28 -258 -29 -428 -2 -466 32 -45 62 -10 53 61 -4
33 9 51 51 69 l56 24 -62 7 c-61 7 -62 9 -48 85 15 80 14 188 -1 240 -6 21 8
32 48 36 40 5 53 15 45 37 -7 17 -12 34 -12 39 0 5 -18 0 -40 -12 -35 -19 -40
-15 -40 26 0 29 12 47 30 47 17 0 30 -7 30 -16 0 -9 8 -17 19 -17 10 0 14 20
8 45 -6 25 -11 56 -12 69 -1 13 -9 20 -17 14 -9 -5 -11 -22 -5 -39 6 -16 1
-29 -11 -29 -12 0 -22 13 -22 28 0 16 -10 32 -23 36 -35 12 -1 90 44 102 21 6
38 22 37 37 -1 20 -4 21 -11 2 -38 -94 -93 19 -76 158 17 143 28 177 58 177
17 0 24 -14 17 -40 -6 -22 -1 -40 12 -40 12 0 22 8 22 18 0 49 469 79 888 57
67 -3 102 -15 108 -35 7 -22 3 -24 -14 -9 -29 28 -136 13 -149 -20 -24 -62 20
-80 131 -54 185 43 207 41 200 -22 -6 -56 21 -70 73 -37 21 13 20 19 -5 29
-19 7 -30 31 -27 57 5 42 -2 46 -80 41 -47 -2 -85 5 -85 15 0 25 90 47 139 34
22 -5 43 1 49 13 6 17 13 17 25 0 11 -13 71 -20 157 -17 105 4 150 -3 180 -28
37 -30 38 -30 11 5 -27 35 -25 36 45 25 42 -7 74 -4 74 7 0 11 14 15 30 8 17
-6 30 -28 30 -48 0 -26 12 -34 40 -29 42 8 56 -21 16 -35 -25 -8 41 -195 70
-195 8 0 7 17 -4 37 -14 25 -13 44 2 59 17 17 17 36 -1 74 -53 119 76 185 182
94 23 -20 35 -22 35 -7 0 57 160 83 219 36 23 -19 25 -17 11 7 -10 17 11 5 47
-25 37 -30 74 -55 83 -55 9 0 31 -6 49 -12 23 -9 28 -4 19 20 -7 18 -2 32 11
32 13 0 18 9 12 19 -7 11 -25 15 -40 9 -15 -6 -32 -2 -39 8 -6 11 17 25 51 32
66 13 117 -13 117 -59 0 -15 16 -36 35 -47 19 -12 24 -21 10 -21 -14 -1 -25
-10 -25 -21 0 -33 29 -23 55 20 17 27 18 38 3 35 -12 -3 -30 15 -39 40 -15 39
-11 45 32 45 44 0 59 -19 51 -65 -1 -8 12 -15 29 -15 24 0 26 8 9 40 -15 27
-15 40 -1 40 12 0 21 -8 21 -17 0 -21 103 -16 139 7 18 10 37 3 54 -21 16 -21
27 -26 27 -11 0 14 11 22 25 17 13 -4 37 4 53 20 23 23 31 23 44 1 13 -20 25
-21 55 -2 21 13 45 18 52 10 7 -7 42 -14 77 -16 91 -5 94 -6 94 -27 0 -10 -18
-24 -40 -31 -24 -8 -40 -30 -40 -56 1 -36 4 -38 20 -14 16 25 20 23 21 -10 2
-29 5 -32 14 -10 6 17 23 37 37 45 15 9 23 40 19 74 -7 56 -6 57 66 47 40 -6
106 -12 146 -14 41 -1 80 -8 87 -16 8 -7 27 -8 42 -2 36 13 36 -23 1 -58 -19
-20 -21 -33 -5 -47 27 -23 113 -34 110 -14 -7 43 5 48 31 14 17 -22 30 -69 30
-106 1 -52 8 -65 32 -55 37 14 63 -42 34 -71 -28 -28 -7 -97 30 -97 24 0 25
-6 5 -30 -14 -16 -17 -30 -8 -30 9 0 5 -11 -8 -24 -34 -34 -30 -89 7 -104 44
-17 30 -103 -16 -99 -53 4 -42 -10 29 -39 43 -17 56 -31 40 -41 -13 -9 -24 -6
-24 6 0 11 -27 21 -60 21 -33 0 -60 9 -60 20 0 36 -40 21 -41 -15 -1 -29 -4
-28 -18 6 -10 23 -41 57 -70 76 -29 19 -46 44 -39 56 15 24 -31 60 -56 45 -9
-6 -16 -30 -16 -54 -1 -32 -5 -36 -17 -18 -24 38 -144 22 -171 -22 -30 -48 11
-72 106 -61 65 7 84 -3 195 -107 185 -175 509 -469 582 -529 l64 -54 4 -741 5
-742 46 0 c43 0 46 9 47 115 2 148 49 233 133 241 58 6 73 -3 141 -84 14 -17
25 -76 25 -131 0 -56 9 -101 20 -101 12 0 30 -22 40 -50 10 -27 31 -50 46 -50
41 0 101 74 87 109 -18 47 72 131 139 131 l58 0 6 1448 5 1447 -50 10 c-27 5
-45 2 -39 -8 12 -19 -129 -25 -415 -19 -113 3 -211 -4 -235 -17 -28 -15 -42
-15 -42 -2 0 33 -43 24 -72 -14 -25 -33 -27 -33 -27 0 -1 42 -151 51 -168 10
-8 -19 -14 -19 -29 3 -13 18 -33 22 -57 13 -30 -13 -32 -18 -7 -26 17 -6 36
-21 44 -33 11 -16 26 -15 55 3 34 21 41 20 41 -3 0 -15 14 -33 32 -40 44 -17
48 -15 36 16 -6 15 -1 34 11 41 11 7 21 0 21 -16 0 -16 14 -34 32 -41 44 -17
48 -15 36 16 -6 15 -1 34 11 41 11 7 21 0 21 -16 0 -16 14 -34 32 -41 44 -17
48 -15 36 16 -6 15 -1 34 11 41 11 7 21 -1 21 -18 0 -37 23 -40 56 -7 18 18
36 12 77 -25 37 -34 50 -39 42 -16 -20 55 9 60 61 12 49 -45 49 -45 36 -2 -9
28 -3 46 17 54 19 7 31 1 31 -16 0 -15 9 -31 19 -34 36 -13 -11 -57 -65 -61
-36 -3 -54 -16 -54 -38 0 -24 -12 -31 -40 -24 -49 13 -57 -55 -10 -94 45 -37
135 -9 120 39 -8 25 3 48 34 69 50 35 156 43 156 12 0 -11 9 -20 19 -20 40 0
-2 52 -60 74 -60 23 -78 72 -36 98 16 10 20 1 12 -27 -7 -30 -3 -39 17 -31 16
5 28 2 28 -9 0 -10 13 -18 28 -18 16 0 24 11 19 24 -5 14 0 31 12 38 20 13 30
-26 22 -84 -3 -31 23 -33 52 -4 15 15 25 12 34 -11 7 -18 4 -27 -5 -21 -35 21
-78 -11 -67 -51 8 -30 16 -34 37 -16 21 17 28 17 28 0 0 -13 -12 -28 -26 -33
-14 -6 -27 -28 -29 -51 -2 -36 2 -37 30 -15 34 28 34 27 -9 -78 -6 -16 0 -21
17 -15 19 7 28 -3 28 -28 0 -22 -4 -39 -10 -38 -56 5 -66 -8 -55 -72 6 -38 1
-77 -12 -90 -13 -13 -14 -22 -2 -22 11 0 30 10 41 21 15 15 25 13 34 -10 6
-17 5 -31 -3 -31 -8 0 -25 -18 -39 -39 -20 -32 -19 -38 3 -29 15 6 34 1 41
-11 13 -20 -8 -28 -69 -24 -20 1 -22 -2 -5 -9 14 -6 25 -24 25 -40 0 -15 11
-26 24 -23 15 3 25 -23 27 -68 3 -55 -3 -71 -24 -63 -34 13 -35 40 -2 52 14 5
19 15 11 24 -16 17 -76 -37 -76 -69 0 -11 9 -21 20 -21 11 0 20 -13 20 -30 0
-16 8 -30 19 -30 20 0 38 -46 53 -135 5 -30 14 -71 20 -90 16 -52 -34 -43
-118 20 -63 48 -73 66 -73 140 -1 80 -4 85 -58 85 -31 0 -100 13 -154 29 -76
23 -101 24 -113 5 -12 -18 -20 -18 -33 3 -14 21 -33 22 -100 2 -62 -19 -88
-19 -110 -2 -21 18 -33 17 -53 -7 -16 -19 -60 -30 -122 -30 l-98 0 0 88 c0 52
12 97 29 111 26 22 26 31 -2 72 -24 38 -27 66 -11 140 16 74 14 94 -9 103 -19
7 -22 18 -8 34 13 16 10 57 -10 121 -16 54 -29 127 -29 164 0 64 -4 67 -72 67
-79 0 -149 66 -168 157 -9 46 -43 65 -90 52z m-4235 -1055 c-13 -38 -45 -12
-50 40 -6 54 -5 54 25 17 17 -22 28 -47 25 -57z m5289 -226 c-3 -37 7 -72 25
-87 21 -18 31 -19 31 -3 0 12 8 22 18 22 29 0 48 -153 24 -194 -19 -34 -21
-34 -21 -1 -1 44 -52 46 -69 3 -20 -52 -14 -65 26 -54 26 7 42 -3 52 -32 7
-24 21 -37 31 -31 11 6 19 -2 19 -18 0 -16 -8 -33 -17 -36 -9 -4 -23 -32 -31
-64 l-14 -56 59 34 c46 28 55 44 46 81 -18 65 -3 268 19 268 18 0 22 -98 18
-445 -2 -167 2 -195 30 -195 18 0 27 -9 20 -20 -7 -12 -21 -15 -31 -9 -11 6
-19 -8 -19 -31 0 -23 8 -37 19 -31 10 6 24 2 31 -9 7 -11 -1 -26 -18 -32 -24
-9 -30 -45 -30 -159 1 -82 -4 -157 -11 -167 -6 -11 -3 -24 7 -31 11 -6 23 4
28 24 7 27 10 25 12 -9 1 -24 -7 -49 -18 -56 -11 -7 -19 -32 -19 -56 0 -79 -7
-112 -22 -104 -7 5 -34 -9 -59 -30 -55 -48 -68 -49 -100 -10 -22 27 -14 38 24
33 7 -1 13 34 12 77 0 44 -9 80 -20 80 -10 0 -13 9 -6 20 7 11 3 20 -8 20 -25
0 -7 58 34 105 29 33 32 33 58 -5 42 -59 57 -49 57 35 -1 41 -6 75 -13 75 -6
0 -25 11 -42 25 -34 29 -56 14 -56 -38 0 -20 -14 -37 -31 -37 -17 0 -27 -8
-21 -17 6 -9 -7 -36 -28 -59 -22 -23 -36 -54 -31 -68 25 -81 30 -136 11 -136
-11 0 -20 23 -20 50 0 44 -9 50 -71 50 -39 0 -66 8 -60 19 14 21 -63 51 -114
44 -35 -6 -49 26 -19 44 8 6 14 35 13 67 -2 31 6 62 16 69 33 21 39 197 6 197
-29 0 -31 33 -4 76 13 20 23 21 46 2 22 -18 34 -19 52 -1 13 13 14 23 4 23
-10 0 -5 10 11 20 25 17 23 20 -10 17 -116 -10 -146 31 -113 152 16 57 14 74
-11 88 -21 12 -26 27 -14 45 9 16 14 44 11 63 -3 19 4 35 16 35 11 0 21 14 21
30 0 17 5 30 11 30 7 0 25 -13 42 -30 42 -42 62 -37 57 15 -3 25 -6 57 -7 71
-2 21 -10 19 -34 -5 -41 -40 -50 -39 -37 4 11 33 10 33 -11 0 -13 -19 -30 -35
-39 -35 -24 0 -154 132 -171 173 -15 35 -16 35 -32 -3 -16 -38 -16 -38 -18 4
0 24 -17 53 -36 64 -45 26 -4 72 83 94 53 12 57 10 47 -29 -13 -51 -3 -54 39
-12 26 26 35 27 49 5 12 -19 16 -20 17 -1 0 14 16 25 35 25 30 -1 31 -3 5 -20
-25 -16 -25 -19 -1 -20 21 0 18 -8 -10 -30 -34 -26 -35 -29 -3 -18 23 8 47 -1
66 -24 29 -36 29 -36 17 10 -11 37 -7 46 16 37 19 -7 47 11 74 48 57 77 113
69 105 -15z m-5250 -524 c18 -11 14 -22 -14 -39 -40 -25 -73 -2 -50 35 15 24
31 25 64 4z m5473 -2353 c-5 -42 4 -75 23 -91 38 -32 39 -141 0 -233 -37 -88
-37 -94 -4 -81 16 6 27 -9 30 -39 2 -27 -9 -53 -26 -60 -19 -7 -29 -33 -26
-68 3 -44 10 -52 30 -36 40 33 30 -7 -15 -63 -37 -45 -40 -46 -38 -10 9 105
-3 230 -21 230 -11 0 -20 -13 -20 -30 0 -16 -17 -30 -38 -30 -20 0 -42 -18
-48 -39 -11 -44 27 -86 69 -77 15 3 27 -9 27 -28 0 -18 7 -39 14 -47 7 -7 5
-36 -6 -64 -10 -28 -15 -54 -11 -59 5 -4 19 22 32 58 22 63 24 64 52 27 33
-44 41 -200 9 -181 -11 7 -20 3 -20 -9 0 -36 -40 -23 -41 14 0 32 -3 32 -25 3
-13 -17 -36 -27 -51 -23 -18 7 -24 -5 -20 -37 5 -35 21 -48 61 -51 42 -4 51 3
41 28 -8 22 -4 27 14 16 15 -9 32 -6 41 8 10 16 19 7 28 -28 9 -37 2 -67 -24
-100 -41 -52 -94 -40 -73 16 9 22 3 33 -17 33 -20 0 -29 -16 -25 -46 6 -57
-24 -86 -89 -85 -36 0 -52 -12 -56 -42 -6 -44 59 -87 72 -48 8 24 65 29 63 6
-9 -90 -180 -211 -173 -123 1 21 10 38 19 38 10 0 12 8 6 18 -6 10 -31 13 -54
7 -33 -9 -41 -4 -33 18 9 21 -2 28 -41 25 -87 -5 -89 -7 -60 -42 23 -29 23
-31 -3 -17 -23 13 -25 11 -7 -8 30 -33 -46 -116 -77 -85 -12 12 -33 16 -48 10
-16 -6 -28 0 -28 13 0 16 -11 17 -34 4 -21 -12 -52 -12 -82 -1 -26 10 -56 13
-66 7 -10 -6 -34 -2 -53 9 -28 17 -20 21 45 22 l80 2 -60 27 c-39 18 -48 28
-25 29 40 2 47 34 10 49 -16 6 -13 10 8 11 18 1 38 16 44 32 7 17 19 29 27 27
32 -7 126 28 126 46 0 11 -10 13 -22 6 -12 -8 -30 -2 -40 13 -24 38 -23 63 2
48 11 -7 20 -2 20 11 0 14 23 44 50 68 57 48 38 186 -22 163 -18 -7 -28 3 -28
29 0 21 9 39 20 39 11 0 20 -9 20 -20 0 -11 28 -20 61 -20 37 0 56 8 48 21 -7
11 -32 15 -56 9 -34 -10 -37 -8 -13 8 17 12 45 22 64 22 23 0 31 11 23 30 -6
17 -30 30 -53 30 -40 0 -39 2 7 51 29 30 63 48 84 42 48 -13 44 17 -9 66 -55
52 -120 56 -102 7 12 -31 10 -31 -18 -5 -38 35 -28 59 26 59 127 0 222 95 139
140 -33 17 -44 12 -70 -35 -30 -54 -30 -55 -43 -10 -14 49 -29 56 -59 26 -36
-36 -62 9 -53 94 7 74 14 85 56 85 29 0 48 12 48 30 0 17 -9 30 -20 30 -11 0
-2 18 20 40 22 22 40 49 40 60 0 11 14 20 30 20 38 0 39 -73 1 -145 -16 -30
-20 -55 -10 -55 11 0 19 -17 19 -39 0 -42 35 -74 56 -50 8 8 3 18 -11 23 -14
5 -25 19 -25 31 0 12 18 5 40 -15 39 -36 40 -35 40 42 -1 51 -6 69 -18 51 -12
-19 -21 -21 -31 -5 -13 21 12 30 64 23 14 -1 25 8 25 20 0 13 13 18 29 12 18
-7 25 -1 19 14 -6 16 -35 22 -79 17 -42 -5 -69 0 -69 14 0 12 28 22 62 22 53
0 61 6 52 40 -8 30 0 40 29 40 22 0 56 9 77 20 42 22 118 4 81 -20 -13 -7 -24
-33 -26 -56 l-3 -43 -46 43 c-25 24 -46 34 -46 22 0 -12 13 -32 28 -45 21 -17
24 -39 12 -82 -9 -32 -10 -63 0 -69 9 -5 12 -28 6 -49 -8 -30 0 -38 31 -36 32
3 36 9 18 31 -18 22 -15 26 15 21 29 -5 39 6 43 48 3 31 -4 51 -14 44 -23 -14
-26 18 -4 39 8 9 16 66 17 129 2 62 5 127 8 143 9 55 34 -122 27 -189z m-907
-1432 c0 -21 -89 -119 -109 -119 -23 0 -9 36 34 86 48 55 75 67 75 33z"/>
<path d="M5309 5079 c-10 -16 -15 -45 -12 -64 3 -19 -4 -35 -16 -35 -11 0 -21
-8 -21 -18 0 -24 86 -45 99 -24 6 10 43 15 83 12 66 -6 71 -2 63 40 -9 48 -57
49 -90 1 -19 -27 -58 29 -45 65 5 14 1 21 -9 15 -9 -6 -21 0 -26 13 -5 17 -13
16 -26 -5z"/>
<path d="M5639 5040 c-2 -16 -2 -55 0 -86 4 -60 -32 -121 -61 -103 -10 6 -12
-3 -6 -20 7 -17 20 -26 30 -20 10 6 18 -1 18 -16 0 -14 -18 -28 -40 -30 -22
-1 -40 6 -40 16 0 11 -9 19 -21 19 -14 0 -14 -13 1 -40 12 -22 14 -40 6 -40
-9 0 -16 -22 -16 -48 0 -27 9 -43 20 -36 10 7 36 13 55 15 59 4 71 31 81 189
8 126 -15 299 -27 200z"/>
<path d="M5288 4737 c-26 -43 57 -84 87 -43 22 30 21 37 -9 49 -52 20 -62 20
-78 -6z"/>
<path d="M5440 4558 c-37 -15 -42 -24 -22 -37 27 -17 -45 -55 -84 -44 -10 2
-11 -5 -4 -17 21 -34 69 -22 122 30 27 28 58 50 69 50 10 0 19 9 19 20 0 25
-34 24 -100 -2z"/>
<path d="M5459 2172 c25 -30 25 -38 0 -55 -23 -17 -22 -19 6 -10 19 7 35 3 35
-8 0 -10 8 -19 18 -19 33 0 -2 81 -45 104 -39 21 -41 20 -14 -12z"/>
<path d="M5473 1787 c-7 -8 -13 -28 -12 -45 0 -28 4 -27 27 3 29 39 52 27 52
-28 0 -20 9 -37 19 -37 11 0 11 24 -2 60 -20 57 -54 76 -84 47z"/>
<path d="M5200 1698 c0 -28 82 -41 110 -18 16 13 40 17 54 9 15 -9 19 -8 9 3
-20 22 -173 27 -173 6z"/>
<path d="M5494 1660 c6 -22 22 -40 35 -40 44 0 51 25 16 52 -49 38 -63 34 -51
-12z"/>
<path d="M5200 1612 c0 -40 50 -75 87 -60 18 7 33 21 33 31 0 10 -17 9 -40 -3
-31 -17 -37 -15 -28 7 5 15 -4 33 -21 40 -19 7 -31 1 -31 -15z"/>
<path d="M5167 1408 c-8 -21 -24 -45 -36 -53 -14 -10 -14 -14 0 -15 48 0 100
56 75 82 -20 20 -28 17 -39 -14z"/>
<path d="M5495 6865 c47 -4 123 -4 170 0 47 5 9 8 -85 8 -93 0 -132 -3 -85 -8z"/>
<path d="M4983 6682 c-15 -9 -24 -31 -20 -48 6 -27 12 -28 46 -3 43 32 19 79
-26 51z"/>
<path d="M1985 6646 c2 -24 13 -42 24 -40 12 2 19 -7 16 -20 -3 -14 8 -20 25
-13 17 6 30 24 30 39 0 25 -13 32 -53 26 -7 -1 -20 10 -29 25 -11 18 -15 13
-13 -17z"/>
<path d="M5090 6664 c-5 -5 20 -24 56 -42 62 -32 93 -22 94 28 0 20 -132 32
-150 14z"/>
<path d="M700 6620 c-26 -49 -11 -80 39 -80 49 0 85 47 69 89 -11 27 -17 29
-30 8 -13 -20 -17 -21 -18 -2 0 39 -36 30 -60 -15z"/>
<path d="M1033 6644 c-50 -6 -55 -13 -46 -61 6 -29 7 -42 1 -28 -16 36 -101
32 -101 -5 0 -16 4 -26 9 -21 5 5 21 -3 36 -18 43 -43 106 -17 96 40 -9 48 16
51 175 20 30 -6 40 33 14 58 -14 15 -116 23 -184 15z"/>
<path d="M3776 6612 c-85 -89 -97 -113 -76 -153 12 -21 31 -39 42 -39 11 0 15
8 9 18 -6 10 4 23 22 30 30 12 29 16 -5 44 -21 17 -28 26 -17 21 12 -6 37 16
56 48 36 61 16 81 -31 31z"/>
<path d="M5031 6601 c-6 -10 -3 -24 9 -31 34 -21 22 -50 -20 -50 -22 0 -40
-12 -40 -27 0 -43 22 -52 63 -27 47 30 89 -18 53 -60 -33 -40 152 -33 230 8
l64 34 -85 13 c-62 8 -107 32 -161 85 -80 78 -95 85 -113 55z"/>
<path d="M2162 6512 c-17 -20 -16 -32 3 -47 37 -29 91 -23 86 11 -6 45 -63 68
-89 36z"/>
<path d="M2611 6505 c-19 -50 -12 -61 34 -50 40 11 42 8 17 -22 -25 -30 -23
-32 10 -20 42 16 67 45 68 80 0 35 -116 45 -129 12z"/>
<path d="M601 6485 c2 -19 2 -39 -1 -45 -21 -50 -14 -160 11 -160 16 0 29 11
29 25 1 17 7 15 22 -5 16 -23 17 -18 7 20 -8 28 -22 53 -32 57 -41 16 -12 39
42 33 46 -6 56 -1 47 22 -6 17 -23 26 -38 20 -15 -6 -32 -2 -39 9 -6 10 -1 19
11 19 12 0 17 9 10 20 -21 34 -73 22 -69 -15z"/>
<path d="M4330 6500 c-22 -36 14 -69 39 -35 12 17 40 35 61 40 27 7 19 11 -24
13 -35 1 -69 -7 -76 -18z"/>
<path d="M5624 6487 c-12 -21 -34 -29 -62 -22 -82 22 -110 -142 -30 -173 48
-18 95 25 66 60 -12 15 -32 22 -43 15 -13 -8 -15 -3 -6 12 9 13 35 19 60 13
39 -10 44 -3 44 58 0 79 -3 84 -29 37z"/>
<path d="M3227 6443 l7 -68 -36 48 -36 47 11 -45 c15 -56 44 -76 71 -49 14 14
13 38 -2 77 l-22 57 7 -67z"/>
<path d="M3920 6460 c13 -25 42 -40 75 -40 51 0 52 2 19 35 -31 31 -38 31 -54
5 -17 -26 -19 -25 -20 5 0 19 -9 35 -21 35 -14 0 -14 -13 1 -40z"/>
<path d="M4371 6422 c-6 -11 -2 -25 10 -33 12 -7 17 -25 11 -40 -6 -15 -2 -33
9 -40 10 -6 19 -1 19 11 0 12 9 17 20 10 26 -16 0 52 -33 85 -14 15 -29 17
-36 7z"/>
<path d="M2918 6365 c-2 -8 -2 -22 0 -30 1 -9 -18 -12 -43 -8 -25 4 -34 3 -21
-1 13 -5 19 -21 13 -37 -6 -16 -1 -29 11 -29 12 0 22 9 22 20 0 10 22 25 49
31 31 8 44 23 38 41 -12 29 -65 39 -69 13z"/>
<path d="M3380 6351 c0 -4 9 -31 19 -59 16 -40 13 -55 -15 -71 -19 -11 -25
-20 -14 -20 33 0 97 57 102 89 2 17 -8 30 -24 30 -15 0 -28 9 -28 20 0 11 -9
20 -20 20 -11 0 -20 -4 -20 -9z"/>
<path d="M5389 6291 c-47 -113 -39 -212 16 -206 36 4 45 -5 43 -45 -2 -46 21
-79 57 -80 8 0 15 19 15 41 0 33 9 39 40 29 58 -18 49 14 -22 81 -78 74 -124
163 -112 211 17 62 -6 43 -37 -31z"/>
<path d="M5073 6280 c49 -86 79 -94 138 -39 58 54 45 67 -88 89 l-88 14 38
-64z"/>
<path d="M4088 6250 c0 -41 10 -70 24 -70 28 0 23 125 -5 134 -11 4 -19 -25
-19 -64z"/>
<path d="M5613 6243 c-42 -46 -42 -56 7 -118 l40 -50 0 102 c0 116 -1 117 -47
66z"/>
<path d="M5243 6190 l-46 -59 56 -46 c63 -49 98 -59 74 -20 -9 14 -20 61 -26
105 l-11 79 -47 -59z"/>
<path d="M3692 6168 c-7 -19 -18 -28 -25 -22 -16 16 -64 -32 -55 -56 15 -40
-26 -75 -70 -61 -32 10 -40 25 -31 53 14 45 -27 53 -44 8 -6 -17 -36 -30 -69
-30 -32 0 -58 -10 -58 -21 0 -12 -10 -15 -22 -8 -12 8 -30 2 -39 -12 -12 -21
-26 -16 -57 22 -24 29 -41 38 -41 22 -1 -18 -16 -24 -41 -17 -24 6 -35 2 -28
-10 9 -13 -4 -15 -34 -5 -27 9 -61 17 -78 18 -16 2 -48 13 -69 25 -24 13 -56
15 -83 5 -24 -9 -49 -11 -56 -4 -7 6 -12 1 -12 -13 0 -13 -8 -19 -19 -13 -10
6 -24 3 -30 -7 -7 -12 -33 -8 -65 8 -29 16 -60 24 -69 18 -8 -5 -25 9 -37 31
-29 55 -53 52 -65 -9 -5 -27 -1 -50 10 -50 11 0 9 -13 -5 -30 -41 -49 -7 -51
770 -45 l740 5 6 67 c5 44 -1 63 -15 54 -11 -7 -21 -2 -22 13 0 14 -15 1 -34
-29 -45 -72 -79 -70 -96 8 l-13 62 -37 -77 c-30 -65 -51 -66 -41 -3 6 38 -41
10 -58 -35 -10 -27 -24 -50 -31 -50 -6 0 -5 11 3 23 10 16 4 20 -18 11 -22 -8
-29 -3 -21 17 6 16 23 29 37 29 15 0 24 16 21 35 -3 19 3 46 14 60 12 14 16
31 10 36 -5 6 -16 -4 -23 -23z"/>
<path d="M5031 6142 c-18 -21 -25 -43 -15 -50 10 -6 34 6 53 26 18 21 25 43
15 50 -10 6 -34 -6 -53 -26z"/>
<path d="M2175 6092 c-19 -14 -35 -47 -35 -72 0 -38 -5 -41 -30 -20 -17 14
-26 42 -20 61 12 38 -66 33 -92 -6 -7 -10 -25 -20 -40 -24 -131 -28 -159 -39
-152 -59 22 -57 -24 -113 -84 -102 -52 9 -57 5 -47 -33 10 -36 4 -42 -31 -32
-24 6 -41 5 -38 -2 2 -7 -3 -13 -12 -13 -9 0 -30 -29 -48 -65 -17 -36 -44 -65
-59 -65 -16 0 -34 -14 -40 -32 -10 -25 -16 -26 -29 -5 -14 21 -17 19 -18 -7 0
-38 -99 -139 -122 -125 -7 5 -19 -5 -26 -22 -6 -18 -22 -25 -35 -17 -13 8 -18
6 -11 -6 14 -22 -55 -106 -87 -106 -10 0 -19 -9 -19 -21 0 -11 -18 -40 -41
-64 -39 -42 -39 -46 -5 -70 48 -35 53 -279 6 -292 -23 -6 -21 -9 5 -11 43 -3
46 -39 5 -55 -50 -19 -11 -107 48 -107 11 0 15 -14 9 -32 -9 -22 -17 -24 -27
-8 -10 16 -18 14 -27 -8 -7 -21 -1 -32 19 -32 17 0 28 -11 23 -25 -5 -14 -23
-25 -40 -25 -18 0 -40 -9 -49 -18 -9 -11 -5 -12 11 -3 21 12 24 6 13 -28 -13
-40 -8 -44 51 -38 37 4 69 -3 73 -16 10 -29 -86 -47 -113 -20 -15 15 -21 2
-21 -43 0 -35 9 -64 21 -64 14 0 14 -13 -1 -40 -16 -30 -15 -40 3 -40 13 0 18
-6 11 -13 -7 -7 -2 -31 10 -55 22 -40 26 -299 5 -333 -5 -9 -1 -22 11 -29 37
-23 24 -90 -15 -77 -25 8 -22 2 9 -21 37 -28 40 -42 25 -96 -11 -39 -11 -72 0
-83 10 -10 13 -31 7 -47 -9 -23 -22 -17 -59 25 -33 39 -47 46 -47 24 0 -18 20
-49 45 -69 48 -38 68 -301 28 -363 -11 -16 -9 -35 5 -49 30 -30 29 -121 -1
-102 -15 9 -18 5 -9 -9 36 -58 30 -219 -9 -254 -38 -34 -39 -33 -39 17 0 28 8
57 19 63 20 13 13 75 -12 116 -9 14 -13 45 -10 70 3 25 -3 45 -13 45 -29 0
-45 -82 -24 -121 10 -18 12 -40 4 -48 -8 -8 -15 -38 -15 -68 -1 -29 -8 -80
-16 -113 -9 -38 -8 -50 4 -33 14 21 21 22 33 3 11 -19 19 -18 32 3 14 21 17
19 18 -8 0 -19 10 -35 22 -35 13 0 18 -27 12 -69 -6 -42 0 -72 13 -77 16 -5
16 -17 -3 -39 -22 -27 -20 -34 15 -45 39 -12 39 -13 3 -52 -29 -32 -36 -67
-32 -174 3 -112 -3 -138 -34 -161 -48 -34 -37 -69 25 -83 49 -12 84 -100 40
-100 -11 0 -21 11 -21 25 -1 17 -7 15 -20 -5 -17 -26 -23 -26 -38 -1 -13 20
-18 8 -15 -40 2 -58 10 -68 46 -63 30 4 48 -7 57 -35 7 -23 22 -41 33 -41 10
0 14 -8 8 -19 -6 -10 -2 -24 9 -31 11 -7 16 -20 10 -30 -6 -9 3 -30 20 -47 20
-20 26 -50 17 -91 -14 -73 28 -86 69 -21 14 22 35 34 48 27 13 -9 17 -5 8 9
-14 22 16 31 86 28 15 -1 -29 50 -97 112 l-125 113 -11 1770 -11 1770 118 103
c302 264 303 266 247 266 -28 1 -62 -10 -75 -23 -19 -19 -24 -16 -24 10 0 27
19 34 85 35 78 1 99 13 255 159 l170 159 245 1 c244 0 273 9 215 67 -16 17
-30 42 -30 55 0 16 -10 12 -26 -10 -33 -46 -149 -14 -121 33 15 25 -40 16 -78
-13z"/>
<path d="M5627 6006 c-37 -51 -39 -63 -15 -96 23 -31 28 -32 28 -5 0 17 10 35
22 39 12 4 18 33 15 64 l-7 56 -43 -58z"/>
<path d="M705 6007 c-39 -16 -30 -67 12 -67 47 0 63 17 49 52 -11 29 -20 31
-61 15z"/>
<path d="M2027 5900 c-66 -10 -91 -31 -482 -396 -124 -116 -241 -222 -260
-236 -31 -22 -35 -78 -39 -541 -3 -449 0 -504 22 -417 14 55 19 127 12 160 -7
33 -9 101 -5 150 4 50 9 119 11 155 6 102 36 66 46 -56 17 -215 21 -579 6
-579 -28 0 -5 -65 34 -95 35 -28 35 -29 1 -18 -32 12 -35 5 -24 -62 7 -41 15
-119 20 -173 8 -119 59 -165 65 -60 6 106 8 191 5 273 -1 42 5 95 12 118 11
34 7 40 -19 31 -22 -9 -32 -1 -32 25 0 46 33 71 47 36 6 -15 10 -12 11 9 1 18
-7 39 -18 46 -12 7 -16 21 -10 30 6 9 1 23 -10 30 -13 8 -13 25 -1 47 24 45 9
286 -19 303 -15 9 -13 21 6 37 35 29 27 183 -11 206 -17 11 -9 16 23 17 44 0
46 6 37 80 -10 69 -6 80 27 80 21 0 38 11 38 25 0 18 -27 23 -90 18 -55 -4
-90 1 -90 15 0 41 70 135 95 127 40 -13 157 33 212 84 28 26 57 41 65 34 8 -7
8 -2 1 11 -8 13 -5 29 7 36 11 7 20 21 20 32 0 11 -10 14 -22 7 -14 -9 -14 2
2 31 19 35 28 39 41 19 9 -15 11 -35 5 -45 -6 -10 9 -7 33 6 28 15 41 36 36
59 -12 45 19 101 56 101 16 0 29 16 30 35 0 42 48 109 65 92 12 -12 76 41 68
56 -2 4 5 -3 17 -16 11 -13 43 -27 70 -32 l49 -8 -50 -22 -50 -23 55 4 c30 1
55 9 55 17 0 24 147 46 155 23 8 -24 198 -17 267 10 53 21 104 -14 142 -96 11
-25 14 -24 17 5 6 55 9 63 25 89 8 13 5 29 -7 37 -12 7 -17 25 -11 40 7 18 0
23 -22 15 -22 -9 -28 -5 -18 11 10 16 -5 23 -47 23 -37 0 -67 -12 -74 -30 -13
-33 -67 -41 -67 -10 0 11 -10 20 -22 20 -12 0 -17 -13 -11 -28 12 -32 -65 -59
-115 -40 -38 15 -40 32 -8 64 19 19 12 24 -30 24 -30 0 -54 -10 -54 -21 0 -12
8 -16 18 -10 10 6 14 -7 8 -29 -9 -32 -17 -36 -38 -18 -21 17 -28 17 -28 -1 0
-13 -16 -21 -35 -17 -48 9 -37 43 19 59 46 13 46 13 -4 17 -136 9 -175 9 -233
0z m-587 -859 c0 -10 -9 -24 -20 -31 -12 -7 -15 -22 -8 -34 8 -12 2 -17 -14
-12 -48 16 -47 96 1 96 22 0 41 -8 41 -19z"/>
<path d="M3795 5872 c-19 -14 -35 -38 -35 -52 0 -20 -7 -19 -32 1 -24 21 -34
21 -46 2 -12 -19 -22 -17 -42 7 -21 25 -30 26 -42 6 -13 -20 -29 -20 -77 -2
-34 12 -56 14 -50 4 16 -25 -25 -23 -75 4 -28 15 -45 16 -54 1 -8 -12 -24 -14
-41 -4 -15 10 -48 10 -72 1 -25 -10 -50 -13 -56 -7 -50 51 -293 4 -293 -56 0
-40 95 -37 120 3 19 30 60 9 60 -31 0 -38 38 -37 53 1 6 16 19 25 29 19 10 -7
13 -22 5 -33 -8 -14 -4 -16 11 -7 13 8 64 14 113 14 49 0 89 9 89 20 0 11 10
13 23 5 29 -18 257 -26 257 -9 0 7 32 9 70 5 46 -6 70 0 70 16 0 13 13 19 29
13 17 -6 35 -3 41 7 17 27 70 1 70 -34 0 -20 11 -26 33 -18 17 7 44 3 58 -9
19 -16 29 -11 39 20 11 35 57 53 115 43 8 -1 47 -4 85 -7 65 -5 82 -24 72 -82
-2 -9 16 -21 39 -27 26 -7 37 -22 30 -41 -9 -23 0 -28 38 -20 29 5 45 1 38
-10 -7 -10 6 -9 29 3 34 18 42 14 53 -29 6 -28 22 -45 33 -38 11 7 19 1 17
-14 -13 -95 44 -157 145 -157 20 0 36 -13 36 -30 0 -16 -9 -30 -20 -30 -11 0
-20 -13 -20 -30 0 -27 13 -34 53 -28 23 3 43 -50 39 -102 -1 -27 9 -62 23 -76
14 -15 25 -46 25 -69 0 -39 2 -40 38 -7 45 41 58 26 59 -68 0 -39 4 -135 7
-215 6 -117 2 -144 -20 -135 -15 5 -29 10 -31 10 -1 0 -1 76 2 170 4 132 -1
170 -22 170 -35 0 -57 -148 -40 -270 8 -61 5 -90 -10 -90 -13 0 -23 -13 -23
-30 0 -16 -9 -30 -20 -30 -29 0 -24 -62 8 -98 40 -45 52 -157 14 -133 -10 6
-23 -4 -30 -21 -9 -23 -4 -29 18 -21 16 7 30 3 30 -8 0 -10 -11 -19 -25 -20
-14 0 -10 -9 9 -20 19 -11 30 -33 24 -48 -6 -15 0 -48 13 -73 26 -48 -23 -109
-73 -90 -13 5 -22 -5 -21 -22 2 -17 -10 -34 -27 -38 -192 -45 -217 -58 -186
-98 21 -28 33 -32 40 -15 15 40 77 30 77 -14 0 -21 -4 -38 -10 -37 -44 4 -56
-12 -53 -64 5 -66 -26 -82 -42 -21 -6 24 -21 34 -40 27 -26 -10 -26 -14 3 -30
27 -16 30 -41 20 -155 -9 -91 -6 -141 9 -150 40 -24 24 -56 -22 -44 -39 10
-37 6 13 -34 34 -28 52 -56 43 -70 -9 -14 10 -47 46 -82 34 -31 62 -69 62 -84
1 -21 5 -20 20 3 24 36 63 -8 47 -51 -5 -14 0 -31 11 -38 13 -8 17 -1 10 18
-15 38 10 39 57 3 32 -24 46 -260 14 -241 -6 3 -24 -2 -40 -12 -24 -15 -23
-18 6 -19 28 0 33 -11 23 -50 -7 -28 -3 -62 8 -75 29 -36 20 -138 -11 -126
-14 5 -25 1 -25 -10 0 -10 14 -19 30 -19 25 0 30 -35 30 -198 0 -139 7 -202
25 -210 20 -10 20 -14 0 -24 -14 -6 -25 -32 -25 -57 0 -56 -56 -105 -115 -100
-61 5 -57 -26 6 -55 41 -19 55 -18 68 3 11 17 31 21 54 12 48 -18 -32 -91
-100 -91 -46 -1 -98 -26 -95 -47 7 -53 -4 -74 -46 -84 -27 -7 -53 -30 -58 -51
-6 -23 -28 -38 -54 -38 -36 0 -43 -9 -35 -48 6 -35 1 -45 -18 -38 -38 14 -87
-30 -73 -66 14 -37 -83 -128 -136 -128 -22 0 -35 -8 -29 -18 22 -37 -110 -48
-148 -13 -26 24 -39 26 -45 9 -10 -30 -412 -38 -424 -8 -5 12 -17 9 -28 -7
-15 -21 -21 -20 -31 6 -10 26 -21 28 -53 11 -23 -12 -51 -16 -63 -8 -12 7 -29
1 -39 -14 -15 -24 -17 -24 -18 -1 0 23 -6 23 -30 3 -24 -20 -36 -20 -60 0 -24
20 -32 18 -42 -8 -7 -17 -22 -25 -35 -18 -51 32 -193 24 -195 -11 -1 -20 -12
-9 -29 27 l-27 60 -1 -57 c-1 -47 -8 -55 -36 -43 -19 8 -98 12 -175 10 -271
-9 -329 -6 -359 19 -23 19 -31 20 -31 2 0 -34 -314 -24 -350 12 -15 15 -41 27
-59 27 -17 0 -31 7 -31 16 0 9 -32 51 -70 93 -39 42 -70 84 -70 93 0 10 -16
16 -35 15 -82 -7 -125 5 -125 34 0 17 -39 69 -87 115 -126 121 -162 148 -189
139 -13 -5 -24 2 -24 16 0 15 18 19 50 11 34 -9 50 -4 51 13 0 16 10 12 27
-10 14 -19 49 -35 77 -35 27 0 61 -13 75 -30 30 -36 63 -21 47 22 -7 17 -24
26 -39 20 -15 -6 -32 -2 -39 9 -6 10 -33 19 -59 19 -55 0 -81 33 -74 90 5 33
2 35 -15 10 -16 -24 -20 -24 -21 -3 0 22 -6 23 -29 4 -36 -30 -111 -9 -111 30
0 28 23 37 75 30 35 -4 31 38 -5 52 -16 6 -30 20 -30 30 0 11 8 14 18 8 9 -6
23 10 29 34 18 67 15 99 -7 85 -35 -22 -21 23 19 59 31 28 35 45 19 86 -11 29
-15 65 -8 81 6 17 -4 47 -23 68 -27 29 -28 35 -5 26 25 -9 28 5 19 84 -9 79
-19 97 -54 102 -44 6 -80 87 -56 125 19 32 46 2 35 -39 -6 -25 5 -46 32 -61
48 -26 48 -28 45 179 -2 224 -6 271 -18 240 -26 -66 -65 -86 -65 -33 0 28 9
56 20 63 30 18 24 90 -8 102 -46 18 -50 79 -7 107 29 17 46 18 61 3 16 -16 13
-22 -10 -22 -49 0 -60 -56 -15 -80 21 -12 40 -14 41 -6 0 9 5 32 10 51 21 89
22 107 4 129 -11 13 -13 35 -4 49 10 16 4 20 -20 10 -20 -7 -43 -13 -52 -13
-10 0 -21 -16 -26 -35 -5 -19 -7 -1 -3 40 3 41 -2 79 -10 84 -9 6 -13 87 -10
182 4 95 -1 217 -10 272 -12 76 -9 106 13 128 16 16 19 29 8 29 -11 0 -16 12
-10 27 6 15 -4 33 -21 40 -29 11 -31 -101 -19 -1222 l13 -1235 56 -55 c31 -30
66 -55 78 -55 12 0 21 -8 21 -18 0 -11 136 -146 303 -300 321 -298 387 -335
437 -242 20 37 25 38 53 10 29 -29 307 -29 401 1 14 4 30 -1 37 -12 15 -25
209 -25 209 1 0 11 14 20 30 20 17 0 30 -9 30 -20 0 -37 135 -23 149 15 13 33
15 33 40 0 31 -42 71 -46 71 -6 0 16 17 27 40 26 22 -2 40 -15 40 -29 0 -20
46 -25 185 -23 102 1 165 6 140 11 -25 5 -45 16 -45 25 0 23 107 16 124 -8 9
-12 141 -18 340 -15 l326 6 118 124 c64 68 225 237 355 374 l238 250 -3 278
c-3 228 -8 272 -29 244 -19 -25 -27 -27 -34 -8 -15 45 7 99 32 78 16 -13 22 0
20 45 -2 35 -5 79 -5 99 -1 20 -11 31 -22 24 -11 -7 -20 2 -20 20 0 18 9 27
20 20 12 -8 20 26 20 88 0 55 -9 105 -19 112 -12 7 -13 30 -3 56 10 24 23 98
31 165 l14 120 -73 35 c-50 24 -84 60 -110 119 -24 54 -51 85 -74 85 -27 0
-36 16 -36 60 0 40 10 60 29 60 17 0 52 43 78 97 32 64 70 107 114 127 l65 32
0 287 c0 158 -9 292 -18 298 -19 12 -24 -22 -18 -131 2 -49 -3 -64 -18 -50
-35 35 -45 370 -10 370 19 0 28 -23 28 -73 0 -41 5 -68 12 -62 37 37 7 825
-32 858 -41 34 -373 340 -578 531 -138 129 -253 145 -374 53 -68 -52 -124 -35
-127 38 -1 24 -68 16 -106 -13z m1105 -1362 c0 -33 -11 -50 -32 -50 -21 0 -28
11 -20 32 7 17 12 40 12 50 0 10 9 18 20 18 11 0 20 -22 20 -50z m8 -635 c-21
-25 -44 -49 -51 -55 -30 -23 -137 -240 -137 -278 0 -25 -13 -42 -32 -42 -24 0
-27 7 -13 25 11 14 19 68 17 120 -2 97 99 255 146 226 10 -6 23 3 29 19 7 17
27 30 45 30 31 0 30 -5 -4 -45z m-228 -555 c0 -11 16 -20 36 -20 38 0 108 -69
89 -88 -6 -7 -1 -12 11 -12 12 0 32 -17 43 -38 16 -30 13 -37 -15 -35 -48 4
-90 49 -77 82 14 36 -25 64 -82 60 -32 -3 -45 7 -45 34 0 20 9 37 20 37 11 0
20 -9 20 -20z m-3354 -478 c-27 -105 -44 -34 -26 108 1 11 10 1 20 -23 9 -24
12 -62 6 -85z m46 -676 c-24 -24 -40 16 -38 97 1 55 -4 73 -16 55 -9 -15 -18
-21 -18 -13 -2 96 52 83 67 -15 10 -62 12 -117 5 -124z"/>
<path d="M647 5809 c-15 -39 21 -79 53 -59 18 11 18 19 -3 32 -20 13 -20 17
-2 18 14 0 25 9 25 20 0 32 -60 23 -73 -11z"/>
<path d="M164 5676 c-25 -25 23 -86 54 -67 10 6 23 0 29 -14 6 -15 10 -11 11
10 1 19 -12 35 -29 35 -17 0 -26 8 -20 19 18 28 -19 43 -45 17z"/>
<path d="M580 5632 c0 -39 8 -46 40 -38 30 8 35 18 21 35 -12 14 -15 31 -7 38
7 7 -2 13 -21 13 -22 0 -33 -17 -33 -48z"/>
<path d="M202 5442 c0 -28 6 -41 11 -27 18 45 47 4 47 -66 0 -38 7 -69 15 -69
44 0 14 210 -30 212 -36 2 -45 -8 -43 -50z"/>
<path d="M484 5410 c-2 -38 6 -70 18 -70 11 0 15 -9 9 -19 -18 -29 -66 -3 -78
42 -26 102 -55 7 -44 -150 6 -90 1 -199 -10 -243 -39 -153 -42 -192 -15 -225
22 -28 21 -30 -2 -16 -22 13 -26 9 -15 -17 7 -20 13 -45 13 -56 0 -13 11 -12
29 3 41 34 79 7 43 -30 -16 -16 -39 -29 -51 -29 -11 0 -21 -13 -21 -30 0 -16
-9 -30 -20 -30 -11 0 -20 -18 -20 -40 0 -22 8 -40 19 -40 10 0 24 -19 32 -43
7 -23 19 -34 26 -25 7 10 37 31 67 46 48 24 50 31 23 58 -21 21 -26 50 -18 94
15 80 -5 136 -42 122 -22 -9 -23 -3 -7 27 11 21 20 102 20 181 0 108 6 139 25
128 20 -11 20 -8 0 13 -52 56 -21 228 38 212 31 -8 35 -1 26 44 -6 29 -14 74
-17 99 -10 73 -25 70 -28 -6z"/>
<path d="M1767 5310 c-37 -42 -38 -49 -10 -60 17 -7 26 -6 18 1 -7 8 6 29 29
48 23 19 34 40 24 46 -10 7 -38 -10 -61 -35z"/>
<path d="M600 5311 c0 -16 9 -34 20 -41 12 -7 8 -29 -10 -58 -17 -25 -25 -51
-18 -57 7 -7 11 -81 10 -164 -2 -116 4 -151 25 -151 37 0 82 54 54 63 -38 13
-63 137 -27 137 26 0 26 5 5 31 -19 23 -20 36 -2 54 17 17 14 31 -10 58 -30
34 -29 37 14 53 l46 17 -44 12 c-29 8 -39 21 -31 43 7 18 2 32 -10 32 -12 0
-22 -13 -22 -29z"/>
<path d="M1670 5220 c7 -11 0 -20 -14 -20 -40 0 -118 -60 -106 -80 6 -10 24
-13 41 -7 16 6 24 19 18 29 -6 10 11 18 37 18 51 0 103 44 80 67 -21 21 -70
15 -56 -7z"/>
<path d="M649 4654 c-7 -30 -21 -49 -30 -44 -9 6 -23 0 -31 -13 -9 -15 -5 -18
12 -7 20 12 23 7 14 -17 -7 -18 -4 -33 7 -33 10 0 19 9 19 20 0 11 14 20 31
20 16 0 35 14 42 30 6 17 19 30 29 30 9 0 12 -13 5 -30 -6 -16 -2 -30 9 -30
37 0 11 70 -28 77 -21 4 -44 17 -52 29 -7 12 -19 -2 -27 -32z"/>
<path d="M688 4502 c-20 -34 -47 -62 -60 -62 -31 0 -48 -47 -30 -77 17 -27 82
-10 82 20 0 11 8 14 19 8 10 -6 25 9 33 34 39 116 10 168 -44 77z"/>
<path d="M3002 4368 c23 -28 -7 -53 -72 -63 -22 -3 -43 -15 -47 -26 -3 -10
-19 -19 -35 -19 -35 0 -36 -23 -3 -59 20 -22 20 -24 -2 -12 -16 10 -37 -1 -57
-28 -16 -24 -52 -52 -79 -62 -30 -12 -44 -28 -35 -42 9 -14 5 -18 -8 -9 -12 7
-37 -9 -55 -37 -19 -28 -45 -51 -58 -51 -13 0 -25 -11 -25 -25 -2 -78 -30
-179 -59 -213 -18 -22 -36 -69 -40 -106 -23 -231 -3 -476 38 -476 19 0 35 -13
35 -30 0 -16 9 -30 20 -30 11 0 20 -12 20 -26 0 -33 46 -134 62 -134 6 0 9
-41 7 -91 -3 -88 123 -249 196 -249 11 0 9 -13 -5 -30 -18 -22 -18 -30 -2 -30
13 0 28 13 35 30 11 29 72 31 100 4 22 -22 127 -16 127 7 0 12 8 16 19 10 10
-6 24 -3 31 9 7 11 35 20 62 20 29 0 45 -9 38 -20 -7 -12 -21 -15 -31 -9 -11
6 -19 3 -19 -7 0 -11 18 -24 40 -30 22 -6 40 -1 40 11 0 12 19 -1 42 -27 43
-48 43 -48 29 -3 -7 25 -6 46 3 47 9 0 32 4 51 8 20 4 30 -2 23 -14 -16 -26
77 2 94 28 6 10 20 17 30 15 46 -9 69 4 64 35 -4 21 9 38 34 43 22 4 45 16 51
26 13 19 88 41 141 40 17 0 31 13 31 28 0 36 -43 37 -76 3 -31 -33 -117 -19
-117 18 0 16 13 28 28 28 29 0 92 135 92 198 0 21 13 43 30 49 16 6 24 25 18
41 -6 16 7 47 29 69 22 22 34 45 27 52 -7 7 8 18 32 24 24 6 44 21 44 31 0 11
-13 15 -28 9 -16 -6 -34 3 -40 20 -20 50 -14 103 13 114 20 8 20 10 0 11 -29
2 -34 102 -5 102 28 0 24 103 -6 142 -13 17 -37 28 -54 24 -16 -5 -12 4 10 18
54 35 56 67 5 71 -41 3 -74 36 -74 75 0 11 7 8 17 -7 11 -17 22 -20 30 -7 7
11 -10 47 -38 80 -27 33 -50 65 -50 70 0 29 -190 196 -237 207 -64 16 -90 49
-57 73 16 12 14 15 -8 8 -18 -6 -58 7 -90 28 -66 43 -180 51 -195 13 -6 -16
-10 -13 -11 8 -1 22 -25 35 -71 41 -52 6 -64 2 -49 -16z m98 -220 c0 -40 73
-8 96 42 26 56 103 48 98 -11 -2 -28 -34 -44 -143 -70 -78 -19 -150 -45 -161
-58 -11 -14 -58 -44 -104 -68 -97 -49 -137 -95 -64 -73 27 8 61 25 77 37 23
19 26 16 13 -17 -8 -22 -16 -44 -18 -50 -1 -5 4 -40 12 -76 17 -81 62 -65 50
17 -5 31 -1 52 8 47 9 -6 16 -28 16 -50 0 -22 9 -35 20 -28 31 19 24 -7 -19
-66 -47 -64 -82 -211 -71 -296 6 -54 -1 -64 -66 -89 -41 -16 -82 -32 -92 -37
-10 -4 -12 16 -4 45 7 31 4 53 -8 53 -21 0 -29 225 -8 246 7 7 47 -5 88 -26
l76 -39 -3 80 c-3 89 -7 91 -70 47 -25 -18 -51 -27 -57 -20 -7 6 -24 2 -39
-11 -17 -14 -27 -15 -27 -1 0 11 -18 16 -40 10 -22 -6 -40 -20 -40 -31 0 -11
18 -15 40 -9 49 13 51 -1 6 -51 -28 -30 -30 -44 -10 -76 29 -47 31 -104 3
-132 -25 -25 11 -135 40 -118 10 7 28 -4 39 -24 19 -31 21 -31 21 -2 1 20 15
31 36 28 21 -3 32 -19 28 -41 -6 -33 -3 -33 25 -4 18 17 27 47 20 68 -10 33
-8 32 20 -3 31 -38 32 -37 32 10 0 48 1 48 40 -11 54 -81 51 -87 -31 -76 -67
9 -70 7 -50 -32 11 -23 30 -60 41 -82 11 -22 20 -53 20 -70 0 -67 56 -25 80
60 21 76 30 87 55 66 34 -28 141 -24 179 7 20 17 26 12 26 -21 0 -24 15 -66
33 -94 l33 -51 37 77 c19 42 36 96 36 121 1 36 12 45 60 45 32 0 64 9 70 19 7
11 28 13 47 6 30 -11 31 -9 4 17 -69 69 -195 101 -208 52 -17 -65 -15 -78 13
-64 14 7 -1 -10 -32 -39 -73 -67 -86 -55 -34 33 70 119 71 436 1 436 -9 0 -20
17 -25 39 -9 31 -4 35 22 21 18 -9 51 -24 73 -32 36 -13 37 -15 4 -23 -26 -6
-32 -20 -22 -52 19 -62 19 -62 97 -14 73 45 100 33 90 -42 -17 -123 3 -261 37
-252 36 9 84 -27 84 -64 0 -12 9 -21 21 -21 35 0 -17 -76 -61 -90 -22 -7 -35
-21 -29 -32 6 -10 -1 -23 -17 -29 -18 -7 -26 -32 -22 -70 6 -50 -1 -60 -47
-72 -83 -20 -205 -94 -205 -124 0 -19 11 -22 35 -11 52 24 169 14 187 -16 27
-42 -14 -63 -80 -40 -38 13 -66 14 -73 3 -6 -11 -2 -19 10 -19 11 0 21 -13 21
-30 0 -35 -23 -39 -54 -8 -16 16 -33 15 -64 -1 -44 -24 -122 1 -122 40 0 33
-77 21 -97 -15 -25 -45 -252 -58 -235 -14 13 34 14 34 -67 5 -62 -21 -99 -5
-101 44 0 28 183 59 223 37 46 -24 145 -7 127 23 -7 11 20 19 64 19 43 0 96
13 120 30 23 16 57 25 73 18 28 -10 131 47 132 74 2 23 -58 10 -68 -15 -5 -15
-21 -27 -35 -27 -18 1 -17 6 4 20 43 28 14 24 -92 -12 -51 -17 -111 -27 -132
-21 -28 7 -36 2 -29 -17 7 -18 1 -24 -18 -17 -16 6 -29 25 -29 41 0 23 -13 27
-52 17 -30 -7 -64 -3 -80 11 -16 13 -34 18 -41 12 -18 -19 115 -92 146 -80 15
6 27 1 27 -11 0 -42 -42 -45 -105 -6 -36 22 -98 46 -139 53 -68 13 -150 70
-101 70 12 0 26 23 33 51 10 40 22 48 53 39 21 -7 39 -5 39 5 0 35 -24 42 -70
21 -69 -31 -182 71 -141 129 24 35 22 50 -21 126 -54 98 -61 138 -20 122 40
-15 52 29 31 120 -26 110 -23 130 15 123 37 -7 61 52 64 159 2 55 10 65 50 65
61 0 112 19 112 41 0 45 99 114 148 104 55 -10 72 23 22 42 -41 16 -38 68 5
78 37 9 85 -35 85 -77z m249 -47 c24 -38 127 -77 148 -56 33 33 87 0 80 -50
-3 -25 3 -58 13 -75 10 -16 19 -39 19 -50 1 -11 10 -23 21 -27 72 -25 93 -49
80 -90 -31 -100 -24 -156 22 -186 45 -30 34 -127 -15 -127 -9 0 -17 -14 -17
-31 0 -40 -64 -30 -72 11 -3 17 -11 59 -19 95 -11 51 -7 65 17 65 20 0 27 13
20 40 -6 22 -23 40 -38 40 -16 0 -28 18 -28 40 0 47 -31 53 -47 10 -12 -30
-73 -20 -73 12 0 42 -68 97 -94 75 -38 -32 -34 12 5 51 28 28 27 36 -2 81 -40
61 -62 51 -85 -35 -13 -47 -28 -63 -56 -58 -71 10 -118 9 -159 -5 -36 -12
-109 91 -109 154 0 41 244 55 358 21 104 -31 149 -33 133 -8 -6 10 -47 25 -91
32 -44 7 -80 22 -80 32 0 10 -20 19 -45 19 -43 2 -43 3 -5 19 54 23 105 24
119 1z m-138 -396 c-6 -14 -2 -25 7 -25 56 0 121 -84 97 -126 -27 -50 -37
-118 -15 -104 39 24 57 -43 19 -71 -46 -33 -52 -68 -9 -52 17 7 30 3 30 -8 0
-11 -13 -25 -30 -32 -16 -6 -25 -19 -19 -29 6 -10 2 -18 -10 -18 -11 0 -21 12
-21 28 0 33 -96 55 -113 27 -7 -11 -25 1 -39 27 l-27 48 0 -55 c-1 -60 -41
-73 -79 -27 -17 20 -17 43 -2 83 12 31 17 68 11 82 -5 15 -1 27 10 27 22 0 4
97 -25 134 -21 26 -6 66 25 66 10 0 15 -11 12 -25 -4 -14 -3 -18 2 -10 5 8 26
15 47 15 21 0 38 10 38 22 0 12 -14 17 -30 11 -26 -10 -26 -6 1 35 33 52 140
31 120 -23z"/>
<path d="M2733 3799 c-57 -45 -69 -79 -27 -79 14 0 41 27 61 60 42 71 36 74
-34 19z"/>
<path d="M3525 3131 c-47 -22 -57 -41 -28 -59 17 -11 97 63 81 74 -4 3 -28 -3
-53 -15z"/>
<path d="M3507 3872 c42 -42 80 -72 85 -66 6 5 -4 23 -21 40 -17 17 -31 41
-31 53 0 11 -8 21 -18 21 -10 0 -35 6 -55 14 -20 8 -2 -20 40 -62z"/>
<path d="M3647 3530 c-18 -48 10 -107 34 -69 25 39 24 99 -2 99 -11 0 -25 -13
-32 -30z"/>
<path d="M3050 3600 c-18 -29 9 -64 41 -52 14 5 29 -5 33 -23 5 -29 10 -28 43
5 36 35 36 35 30 -12 -5 -31 -19 -47 -41 -45 -41 3 -69 -68 -39 -98 15 -15 46
-15 104 3 82 24 82 25 41 61 -46 39 -55 93 -18 106 13 4 18 21 11 38 -13 35
-185 50 -205 17z"/>
<path d="M380 4283 c0 -33 -10 -63 -23 -67 -18 -6 -17 -18 1 -47 18 -28 22
-29 15 -6 -13 40 85 83 129 56 36 -22 63 21 34 56 -17 20 -27 21 -52 0 -25
-20 -28 -20 -17 0 9 14 6 25 -6 25 -11 0 -21 -9 -21 -20 0 -11 -10 -20 -22
-20 -12 0 -17 13 -11 29 6 17 3 35 -8 42 -10 6 -19 -15 -19 -48z"/>
<path d="M631 4309 c-17 -18 -31 -64 -31 -104 0 -69 2 -70 30 -34 21 28 27 30
19 7 -15 -44 48 -68 65 -26 6 18 2 38 -10 46 -13 7 -25 42 -28 78 -5 74 -4 73
-45 33z"/>
<path d="M708 4297 c-6 -11 -7 -24 -2 -30 14 -14 94 12 94 30 0 23 -78 23 -92
0z"/>
<path d="M391 4096 c-21 -157 -28 -636 -9 -647 10 -6 18 -29 18 -50 0 -42 39
-55 41 -14 11 190 9 291 -8 317 -10 18 -12 50 -3 70 27 64 26 116 -2 171 -26
52 -25 54 32 67 82 18 132 150 56 150 -10 0 -13 -9 -6 -20 7 -11 -2 -20 -19
-20 -17 0 -29 11 -26 24 3 13 -10 27 -29 31 -26 6 -36 -12 -45 -79z"/>
<path d="M805 4097 c-37 -37 -31 -51 25 -62 28 -5 50 -2 50 6 0 9 16 20 35 25
22 6 16 10 -18 12 -30 1 -57 11 -61 23 -4 13 -15 12 -31 -4z"/>
<path d="M610 4018 c-23 -63 4 -341 37 -374 31 -30 33 -30 33 2 0 21 17 35 45
36 34 2 36 5 10 12 -19 5 -35 18 -35 29 0 10 9 14 20 7 31 -19 -2 55 -41 94
-19 18 -40 28 -47 21 -7 -6 -12 -2 -12 10 0 39 40 49 53 13 13 -31 15 -31 40
3 23 31 20 39 -18 58 -25 12 -45 37 -45 55 -1 46 -27 68 -40 34z"/>
<path d="M471 3965 c24 -121 32 -146 46 -137 38 23 26 172 -14 172 -27 0 -37
-11 -32 -35z"/>
<path d="M5240 3980 c0 -11 31 -20 69 -20 38 0 74 9 81 20 7 12 -20 20 -69 20
-44 0 -81 -9 -81 -20z"/>
<path d="M5885 3965 c-28 -9 -35 -539 -12 -841 19 -236 56 -205 59 47 2 213
-6 275 -34 258 -10 -6 -18 8 -18 31 0 23 9 37 20 30 11 -7 21 -10 21 -6 38
169 13 498 -36 481z"/>
<path d="M248 3897 c7 -37 3 -74 -12 -91 -25 -31 14 -74 48 -53 17 10 18 109
2 172 -16 64 -52 38 -38 -28z"/>
<path d="M5240 3880 c0 -11 36 -20 80 -20 44 0 80 9 80 20 0 11 -36 20 -80 20
-44 0 -80 -9 -80 -20z"/>
<path d="M5231 3781 c-16 -25 10 -37 69 -30 28 3 61 6 75 7 14 1 25 11 25 22
0 25 -154 27 -169 1z"/>
<path d="M511 3742 c-16 -26 10 -84 31 -71 24 15 23 89 -1 89 -10 0 -24 -8
-30 -18z"/>
<path d="M5240 3660 c0 -11 36 -20 80 -20 44 0 80 9 80 20 0 11 -36 20 -80 20
-44 0 -80 -9 -80 -20z"/>
<path d="M1372 3636 c-27 -83 -32 -138 -13 -126 12 7 21 3 21 -9 0 -11 9 -21
20 -21 26 0 26 154 0 170 -11 7 -24 1 -28 -14z"/>
<path d="M5040 3642 c0 -33 130 -57 159 -29 6 5 -3 18 -20 28 -37 24 -139 25
-139 1z"/>
<path d="M620 3571 c0 -16 9 -34 20 -41 31 -19 24 -46 -15 -56 -32 -9 -32 -10
1 -12 34 -2 34 -5 5 -34 -17 -17 -26 -40 -19 -52 7 -11 12 -78 10 -149 -2 -98
5 -131 28 -140 16 -6 31 -26 32 -44 1 -21 5 -24 11 -8 6 14 25 25 44 25 24 1
26 5 8 17 -14 9 -30 36 -34 60 -5 24 -1 39 9 33 9 -6 23 -2 30 10 7 11 3 20
-9 20 -11 0 -21 13 -21 30 0 16 -18 41 -40 55 -55 34 -50 98 10 143 38 29 47
49 37 88 -9 35 -6 46 10 36 13 -8 23 -2 23 13 0 46 -60 32 -61 -13 -1 -40 -2
-40 -20 3 -20 50 -59 61 -59 16z"/>
<path d="M4992 3585 c-9 -8 -26 -15 -39 -15 -12 0 -26 -21 -30 -47 -6 -46 -5
-46 40 -15 25 17 69 32 96 33 49 0 50 1 12 30 -44 33 -58 35 -79 14z"/>
<path d="M5170 3540 c-17 -27 6 -60 41 -60 33 0 34 4 17 48 -14 36 -40 42 -58
12z"/>
<path d="M5337 3534 c16 -20 14 -38 -8 -69 -35 -51 -18 -105 33 -105 41 0 54
68 18 90 -11 7 -20 21 -20 32 0 11 9 15 20 8 11 -7 20 6 20 29 0 28 -13 41
-42 41 -33 0 -38 -6 -21 -26z"/>
<path d="M4923 3402 c10 -66 107 -101 153 -54 30 29 28 32 -25 32 -32 0 -75
16 -96 35 -38 34 -39 33 -32 -13z"/>
<path d="M5173 3427 c-23 -24 -14 -67 15 -67 23 0 52 40 52 72 0 13 -52 9 -67
-5z"/>
<path d="M5682 3424 c-1 -15 -11 -21 -22 -14 -12 7 -15 -13 -7 -54 16 -82 27
-97 27 -37 0 26 16 59 35 75 19 16 25 24 12 17 -13 -6 -28 0 -34 14 -8 19 -10
19 -11 -1z"/>
<path d="M5081 3297 l-45 -37 50 0 c99 0 153 45 78 65 -20 5 -57 -7 -83 -28z"/>
<path d="M270 3300 c-8 -13 -27 -18 -42 -12 -15 6 -28 -1 -28 -16 0 -15 18
-32 40 -38 24 -6 35 -2 27 10 -6 11 0 28 15 37 15 9 21 22 14 29 -6 7 -18 2
-26 -10z"/>
<path d="M388 3191 c-2 -89 5 -132 23 -139 27 -10 76 95 54 116 -6 7 -1 12 12
12 12 0 23 14 23 30 0 17 -8 30 -19 30 -10 0 -24 18 -31 40 -27 86 -60 40 -62
-89z"/>
<path d="M5240 3260 c0 -11 36 -20 80 -20 44 0 80 9 80 20 0 11 -36 20 -80 20
-44 0 -80 -9 -80 -20z"/>
<path d="M203 3202 c-21 -13 -14 -28 29 -69 69 -64 81 -56 39 25 -36 70 -32
67 -68 44z"/>
<path d="M1010 3160 c8 -24 4 -40 -10 -40 -12 0 -16 -10 -9 -22 18 -29 54 7
63 62 4 26 -5 40 -25 40 -23 0 -28 -12 -19 -40z"/>
<path d="M5231 3161 c-8 -12 0 -26 16 -33 43 -16 143 -1 143 22 0 27 -143 37
-159 11z"/>
<path d="M5240 3040 c0 -11 36 -20 80 -20 44 0 80 9 80 20 0 11 -36 20 -80 20
-44 0 -80 -9 -80 -20z"/>
<path d="M420 3000 c0 -11 -7 -18 -15 -15 -8 3 -15 -4 -15 -15 0 -11 7 -18 16
-15 10 4 12 -3 5 -14 -7 -10 -25 -14 -42 -8 -16 6 -29 2 -29 -9 0 -11 14 -25
32 -32 23 -9 28 -27 18 -70 -10 -50 -7 -58 24 -52 144 29 146 30 141 80 -4 59
-25 64 -53 15 -23 -41 -86 80 -68 129 6 14 5 26 -2 26 -7 0 -12 -9 -12 -20z"/>
<path d="M616 2975 c-4 -25 -3 -66 3 -93 19 -76 65 -5 49 75 -15 74 -40 82
-52 18z"/>
<path d="M3980 3005 c0 -15 -22 -35 -50 -45 -65 -25 -65 -57 -1 -45 65 12 94
48 70 86 -13 20 -18 21 -19 4z"/>
<path d="M487 2949 c-7 -17 -8 -35 -2 -40 17 -18 75 15 75 43 0 38 -58 36 -73
-3z"/>
<path d="M5240 2942 c0 -21 97 -42 134 -28 53 21 24 46 -54 46 -44 0 -80 -8
-80 -18z"/>
<path d="M629 2805 c-19 -14 -19 -33 -1 -145 5 -27 9 -61 10 -74 1 -15 16 -19
35 -12 26 10 31 5 20 -22 -7 -19 -13 -46 -13 -59 0 -14 -7 -13 -18 5 -12 19
-22 1 -32 -60 -8 -49 -18 -108 -23 -132 -4 -24 2 -49 13 -56 11 -7 20 -4 20 6
0 11 29 25 65 33 57 13 60 16 25 31 -22 10 -31 18 -20 19 11 1 7 10 -9 20 -23
14 -17 21 27 32 39 10 62 6 74 -13 14 -22 17 -21 18 7 0 22 -15 35 -42 35 -24
0 -38 10 -33 25 4 13 -4 37 -19 52 -24 24 -23 34 7 67 31 33 31 41 6 57 -25
17 -25 21 1 39 17 11 20 20 7 20 -12 0 -33 -13 -47 -30 -41 -50 -59 -34 -29
26 41 82 13 168 -42 129z"/>
<path d="M420 2735 c0 -19 -11 -33 -24 -30 -34 7 -55 -158 -26 -199 13 -17 19
-54 14 -81 -7 -36 -14 -42 -26 -22 -12 18 -17 8 -17 -33 0 -46 4 -53 19 -30
14 22 19 9 18 -50 -2 -65 -5 -71 -16 -31 -10 39 -15 -487 -5 -543 8 -42 140
-8 149 38 6 35 1 45 -19 38 -15 -6 -27 2 -27 19 0 16 10 29 21 29 12 0 15 11
6 25 -35 55 -58 204 -30 187 13 -8 23 -5 23 7 0 11 -8 21 -18 21 -14 0 -17
171 -4 265 1 9 25 25 53 36 56 21 65 117 13 134 -19 7 -22 -5 -13 -44 10 -38
6 -51 -13 -47 -49 11 -72 81 -45 135 19 36 19 53 3 63 -12 8 -17 32 -11 54 5
22 2 52 -7 67 -14 21 -17 19 -18 -8z"/>
<path d="M520 2691 c0 -27 8 -54 19 -60 22 -14 49 61 31 89 -23 36 -50 21 -50
-29z"/>
<path d="M793 2307 c-22 -23 -15 -82 12 -92 17 -7 25 10 26 48 1 56 -11 70
-38 44z"/>
<path d="M4790 2240 c-7 -11 -3 -20 9 -20 11 0 21 -13 21 -30 0 -16 9 -30 20
-30 23 0 25 23 8 68 -14 36 -40 42 -58 12z"/>
<path d="M617 2187 c-4 -20 -6 -91 -3 -157 7 -186 8 -228 7 -409 0 -92 4 -173
10 -178 19 -20 92 79 83 113 -8 30 -10 30 -12 -2 -2 -33 -5 -34 -32 -7 -32 32
-42 205 -13 216 23 10 45 157 22 157 -10 0 -12 14 -6 31 11 27 16 27 49 -3 35
-32 38 -32 38 -1 0 19 25 44 55 57 55 22 19 51 -40 31 -28 -9 -81 80 -64 107
6 10 -2 18 -19 18 -16 0 -38 15 -48 32 -16 29 -19 28 -27 -5z"/>
<path d="M510 1676 c-5 -14 -6 -53 -1 -86 5 -33 9 -67 10 -75 5 -57 35 2 38
74 3 85 -27 142 -47 87z"/>
<path d="M1430 1440 c5 -9 -10 -41 -34 -73 -23 -31 -31 -46 -15 -32 33 30 66
33 49 4 -9 -13 4 -16 36 -8 36 9 64 -2 106 -41 32 -29 47 -47 33 -40 -14 7
-25 3 -25 -9 0 -11 9 -21 19 -21 26 0 83 -111 67 -127 -12 -12 3 -16 74 -21
22 -2 28 -20 23 -67 -3 -37 3 -65 15 -65 12 0 22 10 22 21 0 12 14 8 30 -8 17
-17 30 -39 30 -50 0 -32 83 -51 100 -23 11 19 18 19 30 1 10 -17 49 -20 127
-10 156 19 166 19 229 2 54 -14 56 -12 50 49 l-6 64 -192 -4 -192 -4 -189 176
c-275 256 -323 296 -361 298 -19 1 -31 -4 -26 -12z"/>
<path d="M5840 1372 c0 -15 -13 -33 -30 -39 -16 -7 -30 -29 -30 -51 0 -21 -11
-43 -25 -49 -19 -8 -19 -10 1 -11 15 -1 21 -11 14 -22 -7 -11 -4 -20 7 -20 10
0 24 -15 31 -33 11 -26 8 -28 -16 -9 -36 30 -60 -2 -42 -58 7 -23 4 -40 -9
-40 -29 0 -26 -54 4 -68 19 -9 19 -15 1 -23 -17 -8 -18 -26 -5 -60 11 -31 11
-49 -1 -49 -33 0 -23 -75 11 -88 18 -7 25 -22 17 -35 -10 -16 -4 -20 19 -11
18 7 33 4 33 -7 0 -10 -14 -19 -31 -19 -17 0 -26 -8 -20 -19 7 -10 -4 -28 -24
-39 -30 -17 -32 -25 -8 -64 20 -33 21 -47 3 -58 -18 -11 -18 -26 -3 -54 15
-29 15 -46 -2 -63 -19 -19 -18 -34 2 -66 14 -22 16 -35 4 -28 -12 8 -21 -5
-21 -32 0 -35 5 -40 24 -21 32 32 56 30 56 -5 0 -18 -12 -25 -30 -18 -19 7
-30 0 -30 -20 0 -17 -10 -37 -23 -45 -16 -10 -20 -1 -12 29 8 29 2 43 -17 43
-15 0 -28 -9 -28 -20 0 -11 -10 -20 -21 -20 -12 0 -16 9 -9 20 23 37 -37 20
-84 -23 -25 -24 -52 -37 -60 -29 -8 8 -2 22 14 32 16 10 24 23 17 29 -6 6 -34
-12 -63 -40 -54 -55 -105 -49 -85 8 6 18 -7 11 -29 -17 -34 -42 -43 -45 -59
-20 -14 22 -10 34 15 44 32 12 32 13 0 15 -18 0 -47 -19 -64 -42 -26 -38 -32
-39 -43 -12 -16 41 -370 41 -384 -1 -11 -31 -65 -32 -65 0 0 13 -12 7 -27 -13
-17 -23 -37 -31 -53 -21 -18 11 -21 8 -11 -8 8 -13 29 -22 48 -20 18 2 50 -3
70 -12 24 -10 43 -7 53 9 11 18 19 19 29 3 8 -13 22 -17 33 -11 21 13 847 13
914 0 24 -5 53 -14 64 -21 13 -8 20 222 20 669 0 441 -7 681 -20 681 -11 0
-20 -13 -20 -28z"/>
<path d="M681 1267 c0 -23 -14 -48 -31 -54 -38 -15 -38 -73 0 -146 32 -61 33
-59 34 63 0 44 7 85 16 90 8 6 7 28 -1 50 -16 39 -16 39 -18 -3z"/>
<path d="M1425 1238 c-2 -31 3 -36 23 -20 14 12 30 17 36 11 6 -6 16 1 21 16
7 17 -6 28 -33 30 -31 3 -44 -8 -47 -37z"/>
<path d="M172 1068 c-23 -60 -12 -88 33 -86 25 0 35 5 22 11 -12 5 -18 25 -13
46 12 46 -25 72 -42 29z"/>
<path d="M5080 1001 c0 -48 23 -64 59 -41 23 13 22 22 -4 48 -42 42 -55 40
-55 -7z"/>
<path d="M2495 984 c-59 -7 -61 -11 -43 -78 12 -42 128 -58 143 -19 28 74 -8
109 -100 97z"/>
<path d="M5474 877 c11 -59 9 -62 -41 -53 -61 12 -74 -77 -31 -201 28 -79 54
-82 42 -4 -7 48 8 76 84 157 101 108 113 133 52 114 -27 -8 -44 -2 -52 19 -24
61 -68 36 -54 -32z"/>
<path d="M5120 903 c0 -9 18 -33 40 -53 45 -41 60 2 16 46 -28 28 -56 31 -56
7z"/>
<path d="M628 845 c-33 -52 -12 -173 24 -143 34 28 38 107 5 86 -16 -10 -19 2
-10 39 16 62 11 66 -19 18z"/>
<path d="M5268 833 l-54 -46 48 -66 48 -65 11 87 c5 48 17 98 26 112 25 41
-21 28 -79 -22z"/>
<path d="M268 817 c2 -42 92 -97 92 -56 0 11 -13 25 -30 32 -16 6 -30 24 -30
39 0 15 -8 28 -17 28 -10 0 -17 -19 -15 -43z"/>
<path d="M453 790 c-7 -18 -1 -30 15 -30 15 0 33 -13 39 -30 16 -42 53 -38 53
6 0 71 -84 113 -107 54z"/>
<path d="M5020 805 c0 -23 82 -70 97 -55 7 7 -5 26 -26 42 -43 31 -71 36 -71
13z"/>
<path d="M5611 762 c-38 -43 -38 -43 3 -72 81 -57 67 -170 -22 -170 -38 0 -38
1 -3 27 43 31 26 73 -30 73 -47 0 -71 -80 -41 -135 15 -29 35 -37 71 -30 30 6
51 0 51 -13 0 -12 7 -22 17 -22 9 0 12 28 7 63 -7 43 -2 58 13 49 16 -10 23 9
23 57 0 39 -8 71 -19 71 -10 0 -21 33 -25 72 l-6 73 -39 -43z"/>
<path d="M5094 646 c-64 -90 -66 -88 56 -61 127 28 125 26 70 85 -60 64 -64
64 -126 -24z"/>
<path d="M2690 680 c-7 -12 -23 -15 -34 -7 -12 7 -17 4 -10 -7 7 -11 36 -16
63 -11 34 6 54 -1 62 -21 13 -32 69 -24 69 9 0 11 -8 14 -18 8 -11 -6 -32 2
-49 19 -35 35 -65 38 -83 10z"/>
<path d="M620 630 c0 -36 33 -40 47 -5 6 15 10 10 11 -11 1 -19 -9 -40 -23
-45 -38 -14 -37 -109 0 -109 18 0 26 -6 19 -13 -7 -7 -3 -29 8 -50 15 -28 12
-55 -11 -101 -41 -82 -39 -101 9 -86 25 8 40 4 40 -11 0 -18 7 -18 30 1 18 15
30 17 30 4 0 -13 24 -9 60 9 33 16 60 34 60 38 0 4 -27 22 -60 39 -59 30 -81
70 -39 70 12 0 16 -8 10 -18 -22 -36 39 -34 78 2 35 32 36 40 11 56 -18 11
-37 11 -49 -1 -25 -25 -51 -24 -51 2 0 11 -18 40 -40 64 -44 46 -51 75 -20 75
33 0 23 36 -24 79 -51 48 -96 53 -96 11z"/>
<path d="M490 619 c-8 -11 -2 -34 11 -50 18 -21 19 -43 5 -75 -29 -67 -21
-164 14 -164 33 0 66 164 36 182 -9 6 -16 32 -16 58 0 53 -30 82 -50 49z"/>
<path d="M5114 527 c-8 -7 -5 -24 6 -38 14 -16 11 -32 -12 -51 -27 -22 -36
-21 -57 7 -26 35 -51 27 -51 -16 0 -13 18 -29 40 -35 41 -10 57 -54 20 -54
-11 0 -20 -9 -20 -20 0 -37 53 -20 102 32 62 67 141 108 212 110 54 1 53 3
-24 39 -80 38 -191 51 -216 26z"/>
<path d="M3630 500 c-17 -27 6 -60 41 -60 33 0 34 4 17 48 -14 36 -40 42 -58
12z"/>
<path d="M2520 470 c-2 -22 -8 -29 -13 -15 -14 34 -40 32 -40 -4 0 -16 6 -25
15 -20 8 5 30 -6 48 -24 28 -28 36 -29 52 -5 25 40 22 58 -10 58 -16 0 -33 11
-39 25 -5 14 -11 7 -13 -15z"/>
<path d="M2900 484 c0 -5 16 -22 35 -36 49 -37 145 -36 145 2 0 17 -10 30 -21
30 -12 0 -15 -11 -6 -25 10 -18 5 -17 -18 2 -33 26 -135 47 -135 27z"/>
<path d="M3185 486 c-14 -5 -20 -18 -14 -27 6 -10 -3 -13 -20 -7 -17 7 -31 2
-31 -10 0 -12 27 -22 60 -22 39 0 60 10 60 29 0 35 -21 49 -55 37z"/>
<path d="M4220 460 c0 -17 -20 -39 -45 -50 -47 -21 -74 -90 -35 -90 12 0 18 7
13 16 -6 9 -2 29 8 45 16 24 18 24 19 -4 0 -34 47 -63 68 -42 18 18 14 91 -8
125 -17 27 -19 27 -20 0z"/>
<path d="M2820 423 c0 -22 -11 -43 -24 -48 -17 -5 -18 -12 -2 -22 27 -16 91
42 81 73 -14 40 -55 38 -55 -3z"/>
<path d="M5355 398 c-42 -24 -47 -98 -7 -98 16 0 33 11 39 25 5 14 11 5 11
-20 2 -34 14 -45 53 -45 44 0 48 5 30 39 -12 21 -15 52 -9 70 7 17 3 31 -8 31
-12 0 -33 4 -47 9 -15 6 -43 1 -62 -11z"/>
<path d="M3451 355 c8 -25 22 -48 32 -52 11 -4 9 -19 -3 -33 -27 -33 2 -54 31
-23 30 33 -4 153 -43 153 -23 0 -27 -12 -17 -45z"/>
<path d="M5165 296 c-51 -25 -62 -67 -13 -48 17 7 54 12 82 12 43 0 47 5 26
30 -29 35 -34 35 -95 6z"/>
<path d="M3060 261 c0 -11 -14 -15 -30 -8 -22 8 -27 2 -18 -21 9 -23 27 -28
65 -19 68 16 68 15 22 43 -22 14 -39 16 -39 5z"/>
<path d="M5590 260 l-80 -14 95 -3 c52 -2 95 6 95 17 0 11 -7 19 -15 17 -8 -1
-51 -9 -95 -17z"/>
</g>
</svg>
